#!OML:ASF H:\Terrain\Patient Classification 1\Walking\liu\liu.ASF
:FULLY-SPECIFIED
:DEGREES
419
root 10.9794 17.1297 26.2734 7.57278 -6.7281 -2.25018
lowerback -7.23175 1.18857 -0.907036
upperback -2.78736 1.60028 2.28508
thorax 1.0848 0.813348 2.99284
lowerneck -20.5926 -5.29554 -10.1762
upperneck 24.8313 -7.19798 10.4935
head 12.4239 -2.85328 4.49878
rclavicle -3.34207e-015 -2.38542e-014
rhumerus -46.6757 12.7335 -89.4163
rradius 50.7984
rwrist -28.1486
rhand -28.5674 -28.9061
rfingers 7.12502
rthumb -1.93389 -58.8771
lclavicle -3.34207e-015 -2.38542e-014
lhumerus -45.8052 -9.98585 95.696
lradius 23.4301
lwrist 1.13891
lhand -9.12188 -22.0382
lfingers 7.12502
lthumb 16.8291 7.25248
rfemur 15.4423 2.80612 22.8418
rtibia 17.4499
rfoot 3.61892 1.06461
rtoes -23.2073
lfemur -37.8474 5.65915 -20.0297
ltibia 30.4038
lfoot -0.594857 6.14667
ltoes 1.7304
420
root 11.0241 17.1636 26.4379 7.19043 -6.96136 -1.57837
lowerback -7.11747 1.13543 -1.39287
upperback -2.14431 1.56132 2.04544
thorax 1.68032 0.781239 3.02325
lowerneck -22.7871 -5.32632 -9.41751
upperneck 25.3173 -7.19038 9.96243
head 13.0049 -2.77729 4.16293
rclavicle -1.55425e-014 -1.51076e-014
rhumerus -45.384 12.4195 -89.2467
rradius 49.3332
rwrist -27.3851
rhand -27.941 -28.2919
rfingers 7.12502
rthumb -1.32894 -58.2675
lclavicle -1.55425e-014 -1.51076e-014
lhumerus -44.1651 -10.1044 95.1862
lradius 23.2896
lwrist 0.984998
lhand -8.65426 -21.6555
lfingers 7.12502
lthumb 17.2792 7.59636
rfemur 14.0377 1.89023 21.4017
rtibia 21.2786
rfoot 4.82457 1.26107
rtoes -19.614
lfemur -36.6285 5.63232 -20.8976
ltibia 30.1775
lfoot -1.4229 6.11578
ltoes 1.31071
421
root 11.0582 17.2013 26.5786 7.14547 -7.23673 -1.31479
lowerback -7.02284 1.13194 -1.63396
upperback -1.93 1.57181 2.04139
thorax 1.84151 0.78186 3.15702
lowerneck -23.874 -5.29995 -9.07927
upperneck 25.7931 -7.06323 9.44832
head 13.3658 -2.72355 3.93255
rclavicle -1.08349e-014 -5.96354e-015
rhumerus -44.8197 12.2321 -89.0407
rradius 48.1662
rwrist -26.7586
rhand -28.2147 -29.0535
rfingers 7.12502
rthumb -1.59323 -59.0273
lclavicle -1.08349e-014 -5.96354e-015
lhumerus -43.2609 -10.0532 95.0055
lradius 23.219
lwrist 0.948295
lhand -8.51994 -21.5179
lfingers 7.12502
lthumb 17.4085 7.72253
rfemur 12.1683 1.3831 20.6748
rtibia 24.9872
rfoot 5.78433 1.3307
rtoes -18.9641
lfemur -35.776 5.67756 -21.2652
ltibia 29.7417
lfoot -1.82866 6.15929
ltoes 1.758
422
root 11.0841 17.2367 26.7121 7.16327 -7.62448 -0.930175
lowerback -6.72719 1.27806 -1.99352
upperback -2.41337 1.79127 2.01753
thorax 1.15341 0.907851 3.33466
lowerneck -19.6277 -4.83516 -11.2605
upperneck 23.2986 -6.53907 11.9286
head 11.6526 -2.51611 5.30957
rclavicle -3.79244e-014 -1.19271e-015
rhumerus -45.8537 11.7649 -88.8371
rradius 47.6669
rwrist -26.1505
rhand -28.6264 -30.0719
rfingers 7.12502
rthumb -1.99088 -60.0423
lclavicle -3.79244e-014 -1.19271e-015
lhumerus -43.8116 -10.0917 95.2691
lradius 23.3088
lwrist 0.769719
lhand -8.86396 -21.6516
lfingers 7.12502
lthumb 17.0774 7.61784
rfemur 10.2103 1.15022 20.0086
rtibia 28.6497
rfoot 6.52789 1.04218
rtoes -18.9376
lfemur -35.0263 5.85495 -21.7598
ltibia 29.243
lfoot -2.02312 6.20028
ltoes 2.70789
423
root 11.121 17.2589 26.8713 7.01067 -7.8669 0.107981
lowerback -6.68866 1.20172 -2.91048
upperback -2.29715 1.75308 1.73823
thorax 1.23442 0.887613 3.56095
lowerneck -19.0702 -4.52729 -11.7525
upperneck 22.5713 -6.12998 12.6566
head 11.2547 -2.30758 5.7158
rclavicle -3.75827e-015 -5.56597e-015
rhumerus -45.5842 11.8319 -88.877
rradius 46.7719
rwrist -25.5079
rhand -28.8124 -29.8296
rfingers 7.12502
rthumb -2.17057 -59.7983
lclavicle -3.75827e-015 -5.56597e-015
lhumerus -43.3191 -9.92158 94.9645
lradius 23.4611
lwrist 0.591197
lhand -9.04383 -21.8091
lfingers 7.12502
lthumb 16.9042 7.47521
rfemur 8.77382 0.41246 18.367
rtibia 32.0948
rfoot 7.50079 0.462328
rtoes -15.2292
lfemur -33.9125 5.99262 -23.1167
ltibia 28.5255
lfoot -2.61769 6.0486
ltoes 3.50878
424
root 11.1547 17.2843 26.9701 7.47265 -8.38176 -0.014569
lowerback -6.38421 1.33939 -2.71749
upperback -2.63952 1.91626 1.77978
thorax 0.703941 0.983699 3.49041
lowerneck -19.9043 -4.78778 -12.5074
upperneck 23.0565 -6.45782 13.5213
head 11.7162 -2.39561 6.16027
rclavicle -7.70291e-016 -1.94809e-014
rhumerus -45.6069 11.8634 -88.8882
rradius 45.4155
rwrist -25.0182
rhand -28.8175 -28.4554
rfingers 7.12502
rthumb -2.17549 -58.424
lclavicle -7.70291e-016 -1.94809e-014
lhumerus -43.2205 -9.9271 94.8795
lradius 23.678
lwrist 0.644656
lhand -8.76869 -21.8573
lfingers 7.12502
lthumb 17.1691 7.40411
rfemur 6.29618 0.635206 18.4195
rtibia 35.6909
rfoot 8.57179 -1.00013
rtoes -12.4898
lfemur -33.5873 6.07805 -23.0281
ltibia 27.7641
lfoot -2.88103 6.35124
ltoes 3.88045
425
root 11.1854 17.3268 27.1849 6.76046 -8.92092 1.96265
lowerback -6.95089 0.897861 -4.7608
upperback -1.9452 1.49533 1.2414
thorax 1.72746 0.740777 4.0845
lowerneck -22.1279 -4.41157 -10.6021
upperneck 24.3744 -5.97549 11.8367
head 12.4615 -2.13644 5.30646
rclavicle -6.52767e-015 -3.97569e-016
rhumerus -44.4679 12.5563 -89.3386
rradius 43.7592
rwrist -24.659
rhand -28.8336 -26.3307
rfingers 7.12502
rthumb -2.19096 -56.2992
lclavicle -6.52767e-015 -3.97569e-016
lhumerus -42.1744 -9.63906 94.1391
lradius 23.8901
lwrist 1.14651
lhand -9.05694 -22.1229
lfingers 7.12502
lthumb 16.8916 7.16251
rfemur 5.38253 0.0935254 15.7383
rtibia 38.9421
rfoot 9.32727 -0.639748
rtoes -14.268
lfemur -31.6008 6.46454 -25.3973
ltibia 26.9998
lfoot -3.81898 6.01148
ltoes 3.98011
426
root 11.1826 17.3828 27.2892 7.01709 -9.72337 1.72005
lowerback -6.89519 0.902381 -4.97585
upperback -1.91102 1.51119 1.37156
thorax 1.72036 0.748075 4.3421
lowerneck -23.7412 -4.33392 -9.4305
upperneck 25.3866 -5.88012 10.6428
head 13.0923 -2.08719 4.68847
rclavicle -2.47238e-015 9.14409e-015
rhumerus -43.8999 12.845 -89.5737
rradius 42.5498
rwrist -24.2344
rhand -29.2618 -25.4375
rfingers 7.12502
rthumb -2.60458 -55.4013
lclavicle -2.47238e-015 9.14409e-015
lhumerus -41.6079 -9.79412 93.8013
lradius 24.2014
lwrist 1.77142
lhand -9.71546 -22.5926
lfingers 7.12502
lthumb 16.2576 6.74582
rfemur 2.82068 1.06849 16.3526
rtibia 42.2931
rfoot 10.1321 -2.62451
rtoes -11.9542
lfemur -31.0557 6.77563 -24.9692
ltibia 26.2875
lfoot -3.99437 6.31852
ltoes 4.89689
427
root 11.2201 17.4032 27.4191 6.90438 -9.95837 1.77304
lowerback -6.62235 0.950785 -4.67588
upperback -1.89014 1.54601 1.21147
thorax 1.59962 0.768504 4.00136
lowerneck -25.0389 -4.50937 -8.7151
upperneck 26.3801 -6.11715 9.76428
head 13.7367 -2.20013 4.20354
rclavicle -2.37299e-014 -1.66979e-014
rhumerus -43.7536 12.5466 -89.6522
rradius 41.6878
rwrist -23.4252
rhand -29.3147 -26.1743
rfingers 7.12502
rthumb -2.6556 -56.1375
lclavicle -2.37299e-014 -1.66979e-014
lhumerus -41.3356 -10.227 93.52
lradius 24.6027
lwrist 2.38531
lhand -9.8035 -22.6021
lfingers 7.12502
lthumb 16.1729 6.7432
rfemur 1.46532 0.712312 15.9356
rtibia 45.2467
rfoot 10.4217 -4.66519
rtoes -2.84301
lfemur -30.1448 6.87442 -25.1544
ltibia 25.85
lfoot -4.37989 6.30358
ltoes 5.41617
428
root 11.2502 17.44 27.5851 6.72479 -10.0916 1.94129
lowerback -6.59873 0.956957 -4.53371
upperback -1.85702 1.54768 1.04496
thorax 1.6295 0.767694 3.74806
lowerneck -23.2881 -4.21718 -9.73219
upperneck 25.0522 -5.84614 11.4103
head 12.9021 -2.01488 5.04222
rclavicle 1.67057e-014 1.35174e-014
rhumerus -43.8222 12.1961 -89.6534
rradius 41.0504
rwrist -22.5772
rhand -29.3141 -26.312
rfingers 7.12502
rthumb -2.65504 -56.2752
lclavicle 1.67057e-014 1.35174e-014
lhumerus -41.1352 -10.7298 93.3045
lradius 24.9801
lwrist 2.86261
lhand -9.60754 -22.0792
lfingers 7.12502
lthumb 16.3615 7.25066
rfemur 0.0915998 -0.363015 15.3363
rtibia 48.006
rfoot 11.2303 -4.15112
rtoes -9.44431
lfemur -29.033 7.16676 -25.5235
ltibia 25.449
lfoot -5.0573 5.99699
ltoes 5.8633
429
root 11.2652 17.4397 27.6925 6.99788 -10.222 1.35695
lowerback -6.06369 0.936312 -4.07929
upperback -2.29724 1.45828 1.25269
thorax 0.892453 0.749469 3.68059
lowerneck -21.2022 -3.7556 -10.5426
upperneck 23.7751 -5.31384 12.6096
head 11.9731 -1.76797 5.68527
rclavicle -1.38606e-014 -8.34896e-015
rhumerus -44.4114 12.2138 -89.7369
rradius 40.4734
rwrist -21.9654
rhand -29.638 -26.1377
rfingers 7.12502
rthumb -2.96786 -56.0968
lclavicle -1.38606e-014 -8.34896e-015
lhumerus -41.4682 -11.0668 93.287
lradius 25.4548
lwrist 3.26644
lhand -9.5825 -21.7666
lfingers 7.12502
lthumb 16.3857 7.56127
rfemur -1.71736 -0.380403 16.1221
rtibia 50.6599
rfoot 10.7468 -5.49806
rtoes -9.86109
lfemur -28.9052 7.31528 -24.9461
ltibia 25.533
lfoot -5.56521 5.86886
ltoes 6.25061
430
root 11.2958 17.447 27.8825 5.96147 -10.4655 3.26988
lowerback -6.62912 0.708225 -5.90076
upperback -1.36296 1.32721 0.835916
thorax 2.15148 0.627251 4.29416
lowerneck -20.715 -3.45482 -11.0091
upperneck 22.4311 -4.82338 13.2797
head 11.3283 -1.52409 6.04072
rclavicle -4.08937e-014 -1.98785e-015
rhumerus -43.2735 12.5534 -89.5169
rradius 39.5932
rwrist -21.5401
rhand -29.2907 -26.5441
rfingers 7.12502
rthumb -2.63248 -56.5076
lclavicle -4.08937e-014 -1.98785e-015
lhumerus -40.282 -11.2824 93.0881
lradius 25.8532
lwrist 3.89754
lhand -9.8177 -21.6496
lfingers 7.12502
lthumb 16.1592 7.69681
rfemur -2.00442 -1.03943 13.6276
rtibia 53.0474
rfoot 9.49724 -6.16729
rtoes -8.6625
lfemur -27.0143 7.56093 -27.1858
ltibia 25.2249
lfoot -6.39251 5.44084
ltoes 5.09233
431
root 11.3085 17.4707 27.9225 6.89581 -10.7979 1.90258
lowerback -6.02416 0.763986 -4.84786
upperback -1.95496 1.27587 1.34419
thorax 1.21985 0.645631 4.20234
lowerneck -20.0659 -3.20781 -11.5277
upperneck 22.0201 -4.4784 13.8538
head 11.025 -1.36635 6.38326
rclavicle 3.00351e-015 1.35174e-014
rhumerus -43.4967 12.8343 -89.5512
rradius 39.0535
rwrist -21.1048
rhand -29.2278 -26.0242
rfingers 7.12502
rthumb -2.57167 -55.9884
lclavicle 3.00351e-015 1.35174e-014
lhumerus -40.3846 -11.4856 93.1643
lradius 26.3032
lwrist 4.65144
lhand -10.3039 -21.7259
lfingers 7.12502
lthumb 15.691 7.65787
rfemur -5.20043 -0.543476 15.7313
rtibia 55.4749
rfoot 8.96582 -8.32292
rtoes -9.439
lfemur -27.5893 7.11386 -25.5747
ltibia 24.885
lfoot -6.09023 6.08693
ltoes 3.57019
432
root 11.3406 17.5028 28.0789 6.69714 -10.856 2.56073
lowerback -6.65197 0.680605 -5.16689
upperback -1.43286 1.23286 1.08898
thorax 2.11355 0.586556 4.13532
lowerneck -20.4541 -3.21408 -11.7205
upperneck 21.7313 -4.45215 14.2221
head 11.0058 -1.31559 6.55533
rclavicle -5.34855e-014 -2.38542e-014
rhumerus -42.7605 12.5701 -89.2839
rradius 38.6081
rwrist -20.3431
rhand -29.7985 -25.6415
rfingers 7.12502
rthumb -3.12287 -55.5984
lclavicle -5.34855e-014 -2.38542e-014
lhumerus -39.3987 -12.1841 92.998
lradius 26.5515
lwrist 5.3675
lhand -10.6681 -22.1151
lfingers 7.12502
lthumb 15.3402 7.29592
rfemur -6.38596 -1.37648 14.7941
rtibia 57.3217
rfoot 8.03158 -8.5563
rtoes -10.5392
lfemur -26.5243 6.98738 -26.4284
ltibia 24.4166
lfoot -6.5765 6.04816
ltoes 2.25608
433
root 11.3735 17.5511 28.2258 6.54327 -10.6713 2.71391
lowerback -6.44394 0.570989 -5.04327
upperback -1.49012 1.06838 1.00121
thorax 1.96034 0.510724 3.9562
lowerneck -20.6381 -3.20659 -11.4742
upperneck 22.1024 -4.47371 13.9646
head 11.1689 -1.32821 6.42947
rclavicle 4.27325e-014 -1.59028e-015
rhumerus -43.0163 12.1394 -89.0986
rradius 38.3608
rwrist -19.3469
rhand -29.3628 -27.1742
rfingers 7.12502
rthumb -2.70213 -57.1368
lclavicle 4.27325e-014 -1.59028e-015
lhumerus -39.3358 -12.5046 92.8816
lradius 26.7879
lwrist 5.50142
lhand -10.8761 -22.41
lfingers 7.12502
lthumb 15.1399 7.01625
rfemur -7.50212 -2.55187 14.4265
rtibia 59.1134
rfoot 6.99733 -8.60095
rtoes -13.4731
lfemur -25.6204 6.96738 -26.7846
ltibia 24.2746
lfoot -7.1667 5.80349
ltoes 1.17312
